<mxfile host="app.diagrams.net" modified="2021-06-14T09:07:00.237Z" agent="5.0 (Macintosh; Intel Mac OS X 10_15_6) AppleWebKit/537.36 (KHTML, like Gecko) Chrome/91.0.4472.77 Safari/537.36" etag="pKB5qrJ_9mDrR66i-6CQ" version="14.7.6" type="github">
  <diagram id="oxULOx9SjGCGqJ5VoOUJ" name="Page-1">
    <mxGraphModel dx="2240" dy="800" grid="1" gridSize="10" guides="1" tooltips="1" connect="1" arrows="1" fold="1" page="1" pageScale="1" pageWidth="827" pageHeight="1169" math="0" shadow="0">
      <root>
        <mxCell id="0" />
        <mxCell id="1" parent="0" />
        <mxCell id="VSkxeDnyyQsMaTCcNgQL-1" value="s3" style="shape=cylinder3;whiteSpace=wrap;html=1;boundedLbl=1;backgroundOutline=1;size=15;fillColor=#99FFFF;" vertex="1" parent="1">
          <mxGeometry x="280" y="720" width="150" height="100" as="geometry" />
        </mxCell>
        <mxCell id="VSkxeDnyyQsMaTCcNgQL-2" style="edgeStyle=orthogonalEdgeStyle;rounded=0;orthogonalLoop=1;jettySize=auto;html=1;fillColor=#FF6666;strokeColor=#FF6666;exitX=0.566;exitY=0.991;exitDx=0;exitDy=0;exitPerimeter=0;entryX=0.433;entryY=0;entryDx=0;entryDy=0;entryPerimeter=0;" edge="1" parent="1" source="VSkxeDnyyQsMaTCcNgQL-16" target="VSkxeDnyyQsMaTCcNgQL-1">
          <mxGeometry relative="1" as="geometry">
            <mxPoint x="345" y="670" as="sourcePoint" />
          </mxGeometry>
        </mxCell>
        <mxCell id="VSkxeDnyyQsMaTCcNgQL-3" value="&amp;lt;&amp;lt;uses&amp;gt;&amp;gt;" style="edgeLabel;html=1;align=center;verticalAlign=middle;resizable=0;points=[];" vertex="1" connectable="0" parent="VSkxeDnyyQsMaTCcNgQL-2">
          <mxGeometry x="-0.1933" y="-3" relative="1" as="geometry">
            <mxPoint as="offset" />
          </mxGeometry>
        </mxCell>
        <mxCell id="VSkxeDnyyQsMaTCcNgQL-4" value="" style="rounded=0;whiteSpace=wrap;html=1;fillColor=#E6E6E6;" vertex="1" parent="1">
          <mxGeometry x="17" y="300" width="230" height="120" as="geometry" />
        </mxCell>
        <mxCell id="VSkxeDnyyQsMaTCcNgQL-5" value="&amp;lt;&amp;lt;uses&amp;gt;&amp;gt;" style="edgeStyle=orthogonalEdgeStyle;rounded=0;orthogonalLoop=1;jettySize=auto;html=1;entryX=0.896;entryY=0.174;entryDx=0;entryDy=0;entryPerimeter=0;" edge="1" parent="1" source="VSkxeDnyyQsMaTCcNgQL-8" target="VSkxeDnyyQsMaTCcNgQL-16">
          <mxGeometry relative="1" as="geometry" />
        </mxCell>
        <mxCell id="VSkxeDnyyQsMaTCcNgQL-6" style="edgeStyle=orthogonalEdgeStyle;rounded=0;orthogonalLoop=1;jettySize=auto;html=1;strokeColor=#FF6666;" edge="1" parent="1" source="VSkxeDnyyQsMaTCcNgQL-8">
          <mxGeometry relative="1" as="geometry">
            <mxPoint x="430" y="770" as="targetPoint" />
            <Array as="points">
              <mxPoint x="520" y="770" />
              <mxPoint x="492" y="770" />
            </Array>
          </mxGeometry>
        </mxCell>
        <mxCell id="VSkxeDnyyQsMaTCcNgQL-7" value="sign asset urls" style="edgeLabel;html=1;align=center;verticalAlign=middle;resizable=0;points=[];" vertex="1" connectable="0" parent="VSkxeDnyyQsMaTCcNgQL-6">
          <mxGeometry x="0.0935" y="-2" relative="1" as="geometry">
            <mxPoint as="offset" />
          </mxGeometry>
        </mxCell>
        <mxCell id="VSkxeDnyyQsMaTCcNgQL-8" value="CMS" style="ellipse;whiteSpace=wrap;html=1;" vertex="1" parent="1">
          <mxGeometry x="414" y="300" width="186" height="140" as="geometry" />
        </mxCell>
        <mxCell id="VSkxeDnyyQsMaTCcNgQL-9" style="edgeStyle=orthogonalEdgeStyle;rounded=0;orthogonalLoop=1;jettySize=auto;html=1;entryX=0.085;entryY=0.163;entryDx=0;entryDy=0;entryPerimeter=0;startArrow=none;strokeColor=#FF6666;" edge="1" parent="1" source="VSkxeDnyyQsMaTCcNgQL-26" target="VSkxeDnyyQsMaTCcNgQL-16">
          <mxGeometry relative="1" as="geometry">
            <mxPoint x="230" y="390" as="sourcePoint" />
          </mxGeometry>
        </mxCell>
        <mxCell id="VSkxeDnyyQsMaTCcNgQL-10" value="submission killer" style="edgeLabel;html=1;align=center;verticalAlign=middle;resizable=0;points=[];" vertex="1" connectable="0" parent="VSkxeDnyyQsMaTCcNgQL-9">
          <mxGeometry x="0.23" y="1" relative="1" as="geometry">
            <mxPoint as="offset" />
          </mxGeometry>
        </mxCell>
        <mxCell id="VSkxeDnyyQsMaTCcNgQL-11" style="edgeStyle=orthogonalEdgeStyle;rounded=0;orthogonalLoop=1;jettySize=auto;html=1;entryX=0;entryY=0;entryDx=0;entryDy=52.5;entryPerimeter=0;" edge="1" parent="1" source="VSkxeDnyyQsMaTCcNgQL-13" target="VSkxeDnyyQsMaTCcNgQL-27">
          <mxGeometry relative="1" as="geometry">
            <Array as="points">
              <mxPoint x="90" y="873" />
            </Array>
          </mxGeometry>
        </mxCell>
        <mxCell id="VSkxeDnyyQsMaTCcNgQL-12" value="upload assets to" style="edgeLabel;html=1;align=center;verticalAlign=middle;resizable=0;points=[];" vertex="1" connectable="0" parent="VSkxeDnyyQsMaTCcNgQL-11">
          <mxGeometry x="-0.3821" y="1" relative="1" as="geometry">
            <mxPoint as="offset" />
          </mxGeometry>
        </mxCell>
        <mxCell id="VSkxeDnyyQsMaTCcNgQL-13" value="Webhooks" style="ellipse;whiteSpace=wrap;html=1;" vertex="1" parent="1">
          <mxGeometry x="50" y="320" width="120" height="80" as="geometry" />
        </mxCell>
        <mxCell id="VSkxeDnyyQsMaTCcNgQL-14" style="edgeStyle=orthogonalEdgeStyle;rounded=0;orthogonalLoop=1;jettySize=auto;html=1;entryX=0.917;entryY=0.875;entryDx=0;entryDy=0;entryPerimeter=0;" edge="1" parent="1" source="VSkxeDnyyQsMaTCcNgQL-16" target="VSkxeDnyyQsMaTCcNgQL-13">
          <mxGeometry relative="1" as="geometry" />
        </mxCell>
        <mxCell id="VSkxeDnyyQsMaTCcNgQL-15" value="&amp;lt;&amp;lt;notifiies&amp;gt;&amp;gt;" style="edgeLabel;html=1;align=center;verticalAlign=middle;resizable=0;points=[];" vertex="1" connectable="0" parent="VSkxeDnyyQsMaTCcNgQL-14">
          <mxGeometry x="-0.0381" relative="1" as="geometry">
            <mxPoint as="offset" />
          </mxGeometry>
        </mxCell>
        <mxCell id="VSkxeDnyyQsMaTCcNgQL-16" value="formio API/GUI" style="ellipse;whiteSpace=wrap;html=1;" vertex="1" parent="1">
          <mxGeometry x="247" y="535" width="173" height="115" as="geometry" />
        </mxCell>
        <mxCell id="VSkxeDnyyQsMaTCcNgQL-17" style="edgeStyle=orthogonalEdgeStyle;rounded=0;orthogonalLoop=1;jettySize=auto;html=1;" edge="1" parent="1" source="VSkxeDnyyQsMaTCcNgQL-19">
          <mxGeometry relative="1" as="geometry">
            <mxPoint x="490" y="300" as="targetPoint" />
          </mxGeometry>
        </mxCell>
        <mxCell id="VSkxeDnyyQsMaTCcNgQL-18" value="CRUD forms" style="edgeLabel;html=1;align=center;verticalAlign=middle;resizable=0;points=[];" vertex="1" connectable="0" parent="VSkxeDnyyQsMaTCcNgQL-17">
          <mxGeometry x="0.4909" y="-2" relative="1" as="geometry">
            <mxPoint as="offset" />
          </mxGeometry>
        </mxCell>
        <mxCell id="VSkxeDnyyQsMaTCcNgQL-19" value="Redaktor" style="shape=umlActor;verticalLabelPosition=bottom;verticalAlign=top;html=1;outlineConnect=0;fillColor=#FFCC99;" vertex="1" parent="1">
          <mxGeometry x="680" y="160" width="30" height="60" as="geometry" />
        </mxCell>
        <mxCell id="VSkxeDnyyQsMaTCcNgQL-20" style="edgeStyle=orthogonalEdgeStyle;rounded=0;orthogonalLoop=1;jettySize=auto;html=1;entryX=0.5;entryY=0;entryDx=0;entryDy=0;" edge="1" parent="1" source="VSkxeDnyyQsMaTCcNgQL-22" target="VSkxeDnyyQsMaTCcNgQL-8">
          <mxGeometry relative="1" as="geometry">
            <Array as="points">
              <mxPoint x="695" y="270" />
              <mxPoint x="507" y="270" />
            </Array>
          </mxGeometry>
        </mxCell>
        <mxCell id="VSkxeDnyyQsMaTCcNgQL-21" value="submits" style="edgeLabel;html=1;align=center;verticalAlign=middle;resizable=0;points=[];" vertex="1" connectable="0" parent="VSkxeDnyyQsMaTCcNgQL-20">
          <mxGeometry x="0.1579" y="-2" relative="1" as="geometry">
            <mxPoint as="offset" />
          </mxGeometry>
        </mxCell>
        <mxCell id="VSkxeDnyyQsMaTCcNgQL-22" value="user" style="shape=umlActor;verticalLabelPosition=bottom;verticalAlign=top;html=1;outlineConnect=0;fillColor=#99FF99;" vertex="1" parent="1">
          <mxGeometry x="680" y="300" width="30" height="60" as="geometry" />
        </mxCell>
        <mxCell id="VSkxeDnyyQsMaTCcNgQL-23" style="edgeStyle=orthogonalEdgeStyle;rounded=0;orthogonalLoop=1;jettySize=auto;html=1;entryX=0;entryY=0.5;entryDx=0;entryDy=0;entryPerimeter=0;fillColor=#FF6666;strokeColor=#FF6666;" edge="1" parent="1" source="VSkxeDnyyQsMaTCcNgQL-13" target="VSkxeDnyyQsMaTCcNgQL-1">
          <mxGeometry relative="1" as="geometry">
            <Array as="points">
              <mxPoint x="130" y="770" />
            </Array>
          </mxGeometry>
        </mxCell>
        <mxCell id="VSkxeDnyyQsMaTCcNgQL-24" value="sign asset urls" style="edgeLabel;html=1;align=center;verticalAlign=middle;resizable=0;points=[];" vertex="1" connectable="0" parent="VSkxeDnyyQsMaTCcNgQL-23">
          <mxGeometry x="-0.0998" y="-1" relative="1" as="geometry">
            <mxPoint as="offset" />
          </mxGeometry>
        </mxCell>
        <mxCell id="VSkxeDnyyQsMaTCcNgQL-25" style="edgeStyle=orthogonalEdgeStyle;rounded=0;orthogonalLoop=1;jettySize=auto;html=1;entryX=-0.007;entryY=0.588;entryDx=0;entryDy=0;entryPerimeter=0;exitX=0;exitY=0.5;exitDx=0;exitDy=0;" edge="1" parent="1" source="VSkxeDnyyQsMaTCcNgQL-13" target="VSkxeDnyyQsMaTCcNgQL-28">
          <mxGeometry relative="1" as="geometry">
            <mxPoint x="60" y="360" as="sourcePoint" />
          </mxGeometry>
        </mxCell>
        <mxCell id="VSkxeDnyyQsMaTCcNgQL-26" value="" style="html=1;verticalLabelPosition=bottom;align=center;labelBackgroundColor=#ffffff;verticalAlign=top;strokeWidth=2;strokeColor=#0080F0;shadow=0;dashed=0;shape=mxgraph.ios7.icons.alarm_clock;" vertex="1" parent="1">
          <mxGeometry x="180" y="345" width="27" height="30" as="geometry" />
        </mxCell>
        <mxCell id="VSkxeDnyyQsMaTCcNgQL-27" value="rokka" style="shape=cylinder3;whiteSpace=wrap;html=1;boundedLbl=1;backgroundOutline=1;size=15;" vertex="1" parent="1">
          <mxGeometry x="147" y="820" width="60" height="80" as="geometry" />
        </mxCell>
        <mxCell id="VSkxeDnyyQsMaTCcNgQL-28" value="Salesfdorce" style="shape=cube;whiteSpace=wrap;html=1;boundedLbl=1;backgroundOutline=1;darkOpacity=0.05;darkOpacity2=0.1;" vertex="1" parent="1">
          <mxGeometry x="-10" y="820" width="87" height="80" as="geometry" />
        </mxCell>
        <mxCell id="VSkxeDnyyQsMaTCcNgQL-29" style="edgeStyle=orthogonalEdgeStyle;rounded=0;orthogonalLoop=1;jettySize=auto;html=1;entryX=1;entryY=0.5;entryDx=0;entryDy=0;" edge="1" parent="1" source="VSkxeDnyyQsMaTCcNgQL-31" target="VSkxeDnyyQsMaTCcNgQL-8">
          <mxGeometry relative="1" as="geometry" />
        </mxCell>
        <mxCell id="VSkxeDnyyQsMaTCcNgQL-30" value="platziert Augenzeuge" style="edgeLabel;html=1;align=center;verticalAlign=middle;resizable=0;points=[];" vertex="1" connectable="0" parent="VSkxeDnyyQsMaTCcNgQL-29">
          <mxGeometry x="-0.2446" y="-3" relative="1" as="geometry">
            <mxPoint as="offset" />
          </mxGeometry>
        </mxCell>
        <mxCell id="VSkxeDnyyQsMaTCcNgQL-31" value="Meteo/SRF3 Redaktor" style="shape=umlActor;verticalLabelPosition=bottom;verticalAlign=top;html=1;outlineConnect=0;fillColor=#FFCC99;" vertex="1" parent="1">
          <mxGeometry x="680" y="430" width="30" height="60" as="geometry" />
        </mxCell>
        <mxCell id="VSkxeDnyyQsMaTCcNgQL-32" value="tget submissions" style="edgeStyle=orthogonalEdgeStyle;rounded=0;orthogonalLoop=1;jettySize=auto;html=1;entryX=0.618;entryY=1;entryDx=0;entryDy=0;entryPerimeter=0;" edge="1" parent="1" source="VSkxeDnyyQsMaTCcNgQL-33" target="VSkxeDnyyQsMaTCcNgQL-8">
          <mxGeometry relative="1" as="geometry" />
        </mxCell>
        <mxCell id="VSkxeDnyyQsMaTCcNgQL-33" value="Meteo Tools" style="shape=umlActor;verticalLabelPosition=bottom;verticalAlign=top;html=1;outlineConnect=0;fillColor=#E6E6E6;" vertex="1" parent="1">
          <mxGeometry x="680" y="524.5" width="30" height="60" as="geometry" />
        </mxCell>
        <mxCell id="VSkxeDnyyQsMaTCcNgQL-34" style="edgeStyle=orthogonalEdgeStyle;rounded=0;orthogonalLoop=1;jettySize=auto;html=1;" edge="1" parent="1" source="VSkxeDnyyQsMaTCcNgQL-38">
          <mxGeometry relative="1" as="geometry">
            <mxPoint x="300" y="530" as="targetPoint" />
          </mxGeometry>
        </mxCell>
        <mxCell id="VSkxeDnyyQsMaTCcNgQL-35" value="konfiguriert Rokka, Salesforce &amp;amp; Augenzeuge Actions" style="edgeLabel;html=1;align=center;verticalAlign=middle;resizable=0;points=[];" vertex="1" connectable="0" parent="VSkxeDnyyQsMaTCcNgQL-34">
          <mxGeometry x="-0.62" relative="1" as="geometry">
            <mxPoint as="offset" />
          </mxGeometry>
        </mxCell>
        <mxCell id="VSkxeDnyyQsMaTCcNgQL-36" style="edgeStyle=orthogonalEdgeStyle;rounded=0;orthogonalLoop=1;jettySize=auto;html=1;entryX=0.5;entryY=0;entryDx=0;entryDy=0;strokeColor=#000000;fillColor=#FF6666;" edge="1" parent="1" source="VSkxeDnyyQsMaTCcNgQL-38" target="VSkxeDnyyQsMaTCcNgQL-13">
          <mxGeometry relative="1" as="geometry" />
        </mxCell>
        <mxCell id="VSkxeDnyyQsMaTCcNgQL-37" value="adjust salesforce mappings" style="edgeLabel;html=1;align=center;verticalAlign=middle;resizable=0;points=[];" vertex="1" connectable="0" parent="VSkxeDnyyQsMaTCcNgQL-36">
          <mxGeometry x="-0.3034" relative="1" as="geometry">
            <mxPoint as="offset" />
          </mxGeometry>
        </mxCell>
        <mxCell id="VSkxeDnyyQsMaTCcNgQL-46" style="edgeStyle=orthogonalEdgeStyle;rounded=0;orthogonalLoop=1;jettySize=auto;html=1;entryX=0.5;entryY=0;entryDx=0;entryDy=0;fillColor=#0000CC;strokeColor=#0000FF;" edge="1" parent="1" source="VSkxeDnyyQsMaTCcNgQL-38" target="VSkxeDnyyQsMaTCcNgQL-41">
          <mxGeometry relative="1" as="geometry">
            <Array as="points">
              <mxPoint x="314" y="190" />
              <mxPoint x="314" y="80" />
              <mxPoint x="414" y="80" />
            </Array>
          </mxGeometry>
        </mxCell>
        <mxCell id="VSkxeDnyyQsMaTCcNgQL-47" value="CRUD external user" style="edgeLabel;html=1;align=center;verticalAlign=middle;resizable=0;points=[];" vertex="1" connectable="0" parent="VSkxeDnyyQsMaTCcNgQL-46">
          <mxGeometry x="-0.0738" y="3" relative="1" as="geometry">
            <mxPoint as="offset" />
          </mxGeometry>
        </mxCell>
        <mxCell id="VSkxeDnyyQsMaTCcNgQL-38" value="Entwickler" style="shape=umlActor;verticalLabelPosition=bottom;verticalAlign=top;html=1;outlineConnect=0;fillColor=#66FFFF;" vertex="1" parent="1">
          <mxGeometry x="270" y="160" width="30" height="60" as="geometry" />
        </mxCell>
        <mxCell id="VSkxeDnyyQsMaTCcNgQL-39" style="edgeStyle=orthogonalEdgeStyle;rounded=0;orthogonalLoop=1;jettySize=auto;html=1;strokeColor=#000000;fillColor=#FF6666;" edge="1" parent="1" source="VSkxeDnyyQsMaTCcNgQL-16" target="VSkxeDnyyQsMaTCcNgQL-16">
          <mxGeometry relative="1" as="geometry" />
        </mxCell>
        <mxCell id="VSkxeDnyyQsMaTCcNgQL-40" value="hard delete submissions&lt;br&gt;" style="edgeLabel;html=1;align=center;verticalAlign=middle;resizable=0;points=[];" vertex="1" connectable="0" parent="VSkxeDnyyQsMaTCcNgQL-39">
          <mxGeometry x="-0.5109" y="4" relative="1" as="geometry">
            <mxPoint x="6" y="14" as="offset" />
          </mxGeometry>
        </mxCell>
        <mxCell id="VSkxeDnyyQsMaTCcNgQL-48" style="edgeStyle=orthogonalEdgeStyle;rounded=0;orthogonalLoop=1;jettySize=auto;html=1;strokeColor=#0000FF;fillColor=#0000FF;" edge="1" parent="1" source="VSkxeDnyyQsMaTCcNgQL-41" target="VSkxeDnyyQsMaTCcNgQL-16">
          <mxGeometry relative="1" as="geometry">
            <Array as="points">
              <mxPoint x="370" y="358" />
              <mxPoint x="334" y="358" />
            </Array>
          </mxGeometry>
        </mxCell>
        <mxCell id="VSkxeDnyyQsMaTCcNgQL-49" style="edgeStyle=orthogonalEdgeStyle;rounded=0;orthogonalLoop=1;jettySize=auto;html=1;entryX=0.66;entryY=0.01;entryDx=0;entryDy=0;entryPerimeter=0;strokeColor=#0000FF;fillColor=#0000FF;" edge="1" parent="1" source="VSkxeDnyyQsMaTCcNgQL-41" target="VSkxeDnyyQsMaTCcNgQL-1">
          <mxGeometry relative="1" as="geometry">
            <Array as="points">
              <mxPoint x="380" y="450" />
              <mxPoint x="379" y="450" />
            </Array>
          </mxGeometry>
        </mxCell>
        <mxCell id="VSkxeDnyyQsMaTCcNgQL-41" value="&lt;b&gt;submission data&lt;/b&gt;" style="ellipse;whiteSpace=wrap;html=1;fillColor=#FFFF99;strokeColor=#0000FF;" vertex="1" parent="1">
          <mxGeometry x="334" y="100" width="160" height="80" as="geometry" />
        </mxCell>
        <mxCell id="VSkxeDnyyQsMaTCcNgQL-44" style="edgeStyle=orthogonalEdgeStyle;rounded=0;orthogonalLoop=1;jettySize=auto;html=1;entryX=1;entryY=0.5;entryDx=0;entryDy=0;fillColor=#0000FF;strokeColor=#0000FF;" edge="1" parent="1" source="VSkxeDnyyQsMaTCcNgQL-42" target="VSkxeDnyyQsMaTCcNgQL-41">
          <mxGeometry relative="1" as="geometry">
            <Array as="points">
              <mxPoint x="580" y="90" />
              <mxPoint x="580" y="90" />
            </Array>
          </mxGeometry>
        </mxCell>
        <mxCell id="VSkxeDnyyQsMaTCcNgQL-45" value="llist &amp;amp; show submissions &amp;amp; assets" style="edgeLabel;html=1;align=center;verticalAlign=middle;resizable=0;points=[];" vertex="1" connectable="0" parent="VSkxeDnyyQsMaTCcNgQL-44">
          <mxGeometry x="0.336" y="-2" relative="1" as="geometry">
            <mxPoint as="offset" />
          </mxGeometry>
        </mxCell>
        <mxCell id="VSkxeDnyyQsMaTCcNgQL-42" value="external client" style="shape=umlActor;verticalLabelPosition=bottom;verticalAlign=top;html=1;outlineConnect=0;fillColor=#FFFF99;" vertex="1" parent="1">
          <mxGeometry x="680" y="40" width="30" height="60" as="geometry" />
        </mxCell>
      </root>
    </mxGraphModel>
  </diagram>
</mxfile>
